<svg width="30" height="30" viewBox="0 0 30 30" fill="none" xmlns="http://www.w3.org/2000/svg">
<rect width="30" height="30" rx="5" fill="#A113E4"/>
<path d="M10.6875 16.875H7.875V13.75C7.875 13.405 7.623 13.125 7.3125 13.125C7.002 13.125 6.75 13.405 6.75 13.75V16.875H3.9375C3.627 16.875 3.375 17.155 3.375 17.5C3.375 17.845 3.627 18.125 3.9375 18.125H6.75V21.25C6.75 21.595 7.002 21.875 7.3125 21.875C7.623 21.875 7.875 21.595 7.875 21.25V18.125H10.6875C10.998 18.125 11.25 17.845 11.25 17.5C11.25 17.155 10.998 16.875 10.6875 16.875Z" fill="white"/>
<g clip-path="url(#clip0_902_29)">
<path d="M17.7292 21.6772C12.0535 15.0947 11 14.4192 11 12C11 8.68628 14.3579 6 18.5 6C22.6421 6 26 8.68628 26 12C26 14.4192 24.9465 15.0947 19.2708 21.6772C18.8983 22.1076 18.1016 22.1076 17.7292 21.6772ZM18.5 14.5C20.2259 14.5 21.625 13.3807 21.625 12C21.625 10.6193 20.2259 9.5 18.5 9.5C16.7741 9.5 15.375 10.6193 15.375 12C15.375 13.3807 16.7741 14.5 18.5 14.5Z" fill="white"/>
</g>
<defs>
<clipPath id="clip0_902_29">
<rect width="15" height="16" fill="white" transform="translate(11 6)"/>
</clipPath>
</defs>
</svg>
