<svg width="30" height="30" viewBox="0 0 30 30" fill="none" xmlns="http://www.w3.org/2000/svg">
<g clip-path="url(#clip0_902_24)">
<rect width="30" height="30" rx="5" fill="#E47813"/>
<path d="M27.2734 7.29886L23.2109 6.46554C22.7694 6.37527 22.3163 6.58013 22.1366 6.94817L20.2616 10.837C20.0976 11.1772 20.2069 11.5765 20.5312 11.8092L22.8984 13.5314C21.4921 16.1945 19.0351 18.4097 15.9765 19.684L14.039 17.5799C13.7734 17.2917 13.328 17.1945 12.9452 17.3403L8.57023 19.0069C8.15226 19.1701 7.92179 19.5729 8.02336 19.9653L8.96086 23.5763C9.05851 23.9513 9.43351 24.2221 9.87492 24.2221C19.8788 24.2221 27.9999 17.0174 27.9999 8.11134C27.9999 7.72246 27.6991 7.38566 27.2734 7.29886Z" fill="white"/>
<path d="M17.3125 9.75H14.5V6.625C14.5 6.28 14.248 6 13.9375 6C13.627 6 13.375 6.28 13.375 6.625V9.75H10.5625C10.252 9.75 10 10.03 10 10.375C10 10.72 10.252 11 10.5625 11H13.375V14.125C13.375 14.47 13.627 14.75 13.9375 14.75C14.248 14.75 14.5 14.47 14.5 14.125V11H17.3125C17.623 11 17.875 10.72 17.875 10.375C17.875 10.03 17.623 9.75 17.3125 9.75Z" fill="white"/>
</g>
<defs>
<clipPath id="clip0_902_24">
<rect width="30" height="30" rx="5" fill="white"/>
</clipPath>
</defs>
</svg>
